<?xml version="1.0" standalone="no"?>
<!DOCTYPE svg PUBLIC "-//W3C//DTD SVG 20010904//EN"
 "http://www.w3.org/TR/2001/REC-SVG-20010904/DTD/svg10.dtd">
<svg version="1.0" xmlns="http://www.w3.org/2000/svg"
 width="256.000000pt" height="256.000000pt" viewBox="0 0 256.000000 256.000000"
 preserveAspectRatio="xMidYMid meet">
<metadata>
Created by potrace 1.14, written by Peter Selinger 2001-2017
</metadata>
<g transform="translate(0.000000,256.000000) scale(0.100000,-0.100000)"
fill="#000000" stroke="none">
<path d="M20 1965 l0 -295 200 0 200 0 0 -685 0 -685 586 0 c547 0 592 1 684
20 365 74 604 245 747 535 36 73 78 197 94 282 19 104 7 320 -25 426 -65 217
-194 398 -370 516 -126 85 -237 130 -399 162 -91 18 -151 19 -907 19 l-810 0
0 -295z m1592 -333 c71 -29 161 -109 193 -172 13 -26 29 -77 36 -113 32 -175
-55 -342 -219 -420 l-67 -32 -247 -3 -248 -3 0 386 0 386 248 -3 c231 -3 251
-4 304 -26z"/>
</g>
</svg>
