<?xml version="1.0" standalone="no"?>
<!DOCTYPE svg PUBLIC "-//W3C//DTD SVG 20010904//EN"
 "http://www.w3.org/TR/2001/REC-SVG-20010904/DTD/svg10.dtd">
<svg version="1.0" xmlns="http://www.w3.org/2000/svg"
 width="256.000000pt" height="256.000000pt" viewBox="0 0 256.000000 256.000000"
 preserveAspectRatio="xMidYMid meet">
<metadata>
Created by potrace 1.14, written by Peter Selinger 2001-2017
</metadata>
<g transform="translate(0.000000,256.000000) scale(0.100000,-0.100000)"
fill="#000000" stroke="none">
<path d="M559 2248 c-62 -72 -122 -159 -155 -226 -16 -31 -31 -59 -34 -62 -18
-18 -79 -216 -93 -302 -13 -81 -15 -334 -2 -388 3 -14 8 -38 10 -55 9 -52 49
-171 78 -235 25 -52 90 -165 98 -168 5 -2 9 -8 9 -14 0 -26 142 -179 235 -253
28 -22 51 -43 53 -47 2 -5 7 -8 12 -8 4 0 37 -17 71 -38 81 -49 141 -76 232
-106 121 -41 187 -50 362 -51 157 0 244 10 312 36 16 6 29 10 30 10 6 -1 42
13 113 42 125 52 238 123 338 213 l44 39 -100 98 c-55 53 -103 97 -107 97 -3
0 -33 -22 -66 -48 -68 -55 -209 -133 -294 -162 -85 -29 -135 -35 -290 -34
-116 0 -152 4 -214 23 -79 24 -201 81 -266 122 -149 96 -286 285 -344 474 -29
92 -33 119 -36 255 -2 92 2 133 20 206 36 144 108 285 200 389 l34 39 -52 51
c-29 29 -75 75 -103 103 l-51 51 -44 -51z"/>
<path d="M1064 1942 l-41 -3 1 -492 1 -492 170 2 c319 4 343 7 426 46 100 46
149 88 204 172 111 170 105 438 -14 602 -47 65 -155 129 -248 148 -53 11 -415
23 -499 17z m381 -197 c74 -11 142 -62 186 -140 18 -33 22 -55 22 -130 0 -49
-2 -104 -5 -121 -16 -88 -110 -183 -198 -200 -61 -11 -200 -11 -201 0 -5 74
-2 597 4 599 13 4 147 -1 192 -8z"/>
</g>
</svg>
