<?xml version="1.0" standalone="no"?>
<!DOCTYPE svg PUBLIC "-//W3C//DTD SVG 20010904//EN"
 "http://www.w3.org/TR/2001/REC-SVG-20010904/DTD/svg10.dtd">
<svg version="1.0" xmlns="http://www.w3.org/2000/svg"
 width="273.000000pt" height="273.000000pt" viewBox="0 0 273.000000 273.000000"
 preserveAspectRatio="xMidYMid meet">
<metadata>
Created by potrace 1.14, written by Peter Selinger 2001-2017
</metadata>
<g transform="translate(0.000000,273.000000) scale(0.100000,-0.100000)"
fill="#000000" stroke="none">
<path d="M596 2398 c-155 -177 -261 -397 -301 -625 -19 -111 -19 -317 0 -429
91 -517 503 -929 1022 -1019 111 -19 317 -19 429 0 224 39 458 154 627 307
l48 43 -109 109 -110 108 -73 -62 c-81 -68 -252 -157 -354 -184 -153 -40 -339
-40 -490 1 -74 19 -228 90 -290 133 -280 193 -439 536 -404 876 20 194 109
397 233 532 l40 43 -111 110 -110 111 -47 -54z"/>
<path d="M1090 1544 l0 -526 268 4 c259 4 269 5 336 30 217 83 336 262 336
508 0 206 -79 364 -219 438 -114 61 -183 72 -468 72 l-253 0 0 -526z m526 294
c56 -29 93 -67 127 -132 19 -35 22 -57 22 -151 0 -135 -21 -192 -96 -259 -66
-59 -119 -76 -241 -76 l-98 0 0 326 0 326 118 -4 c103 -3 123 -7 168 -30z"/>
</g>
</svg>
